<?xml version="1.0" encoding="UTF-8" standalone="no"?><svg xmlns="http://www.w3.org/2000/svg" xmlns:xlink="http://www.w3.org/1999/xlink" contentStyleType="text/css" height="277.0833px" preserveAspectRatio="none" style="width:342px;height:277px;" version="1.1" viewBox="0 0 342 277" width="342.7083px" zoomAndPan="magnify"><defs/><g><!--MD5=[c06a3d9730123df9b4c0c7fe1eeba475]
entity 0--><g id="elem_0"><rect fill="#444444" height="80.3223" rx="4.1667" ry="4.1667" style="stroke:#55B2DE;stroke-width:2.0833333333333335;" width="57.2917" x="86.4583" y="160.4167"/><text fill="#FFFFFF" font-family="&quot;Verdana&quot;" font-size="41.6667" lengthAdjust="spacing" textLength="26.0417" x="102.0833" y="216.3249">0</text></g><!--MD5=[13c7745981a6abb6004f7738a8ca5078]
entity 1--><g id="elem_1"><rect fill="#444444" height="80.3223" rx="4.1667" ry="4.1667" style="stroke:#55B2DE;stroke-width:2.0833333333333335;" width="57.2917" x="86.4583" y="17.7083"/><text fill="#FFFFFF" font-family="&quot;Verdana&quot;" font-size="41.6667" lengthAdjust="spacing" textLength="26.0417" x="102.0833" y="73.6165">1</text></g><!--MD5=[773709cb2207c097691e7e7d3d2cc787]
entity 2--><g id="elem_2"><rect fill="#444444" height="80.3223" rx="4.1667" ry="4.1667" style="stroke:#55B2DE;stroke-width:2.0833333333333335;" width="57.2917" x="180.2083" y="17.7083"/><text fill="#FFFFFF" font-family="&quot;Verdana&quot;" font-size="41.6667" lengthAdjust="spacing" textLength="26.0417" x="195.8333" y="73.6165">2</text></g><!--MD5=[5721696d2af8d327c8f4e7ea88061d17]
entity 3--><g id="elem_3"><rect fill="#444444" height="80.3223" rx="4.1667" ry="4.1667" style="stroke:#55B2DE;stroke-width:2.0833333333333335;" width="57.2917" x="273.9583" y="17.7083"/><text fill="#FFFFFF" font-family="&quot;Verdana&quot;" font-size="41.6667" lengthAdjust="spacing" textLength="26.0417" x="289.5833" y="73.6165">3</text></g><!--MD5=[b8c4f47f73086c8ff69a76ec43e7200c]
entity xs--><g id="elem_xs"><ellipse cx="40.1042" cy="57.8125" fill="#D63333" rx="8.3333" ry="8.3333" style="stroke:#CC0000;stroke-width:1.0416666666666667;"/><text fill="#ADAFAE" font-family="&quot;Verdana&quot;" font-size="41.6667" lengthAdjust="spacing" textLength="46.875" x="16.6667" y="121.0124">xs</text></g><!--MD5=[0f44851a05bd7ce5a3c6681128515f3d]
entity ys--><g id="elem_ys"><ellipse cx="40.1042" cy="200.5208" fill="#D63333" rx="8.3333" ry="8.3333" style="stroke:#CC0000;stroke-width:1.0416666666666667;"/><text fill="#ADAFAE" font-family="&quot;Verdana&quot;" font-size="41.6667" lengthAdjust="spacing" textLength="42.7083" x="18.75" y="263.7207">ys</text></g><!--MD5=[1dd6ade8fb299b4a54c77ad109f34acc]
link xs to 1--><g id="link_xs_1"><path d="M49.7708,57.8125 C59.6771,57.8125 69.5938,57.8125 79.5,57.8125 " fill="none" id="xs-to-1" style="stroke:#2A9FD6;stroke-width:3.125;"/><polygon fill="#2A9FD6" points="84.4375,57.8125,75.0625,53.6458,79.2292,57.8125,75.0625,61.9792,84.4375,57.8125" style="stroke:#2A9FD6;stroke-width:3.125;"/></g><!--MD5=[0ba0d8a0fd0e641c23f69743a446dfe6]
link 1 to 2--><g id="link_1_2"><path d="M144.0313,57.8125 C153.7708,57.8125 163.5104,57.8125 173.25,57.8125 " fill="none" id="1-to-2" style="stroke:#2A9FD6;stroke-width:3.125;"/><polygon fill="#2A9FD6" points="178.4167,57.8125,169.0417,53.6458,173.2083,57.8125,169.0417,61.9792,178.4167,57.8125" style="stroke:#2A9FD6;stroke-width:3.125;"/></g><!--MD5=[eeb69082328d10abd3b14fdeede0d8a3]
link 2 to 3--><g id="link_2_3"><path d="M237.7813,57.8125 C247.5208,57.8125 257.2604,57.8125 267,57.8125 " fill="none" id="2-to-3" style="stroke:#2A9FD6;stroke-width:3.125;"/><polygon fill="#2A9FD6" points="272.1667,57.8125,262.7917,53.6458,266.9583,57.8125,262.7917,61.9792,272.1667,57.8125" style="stroke:#2A9FD6;stroke-width:3.125;"/></g><!--MD5=[01a87ed9b34849a135831238d9901b12]
link ys to 0--><g id="link_ys_0"><path d="M49.7708,200.5208 C59.6771,200.5208 69.5938,200.5208 79.5,200.5208 " fill="none" id="ys-to-0" style="stroke:#2A9FD6;stroke-width:3.125;"/><polygon fill="#2A9FD6" points="84.4375,200.5208,75.0625,196.3542,79.2292,200.5208,75.0625,204.6875,84.4375,200.5208" style="stroke:#2A9FD6;stroke-width:3.125;"/></g><!--MD5=[d310cc16938962836a1ee110921ed263]
reverse link 1 to 0--><g id="link_1_0"><path d="M115.1042,104.875 C115.1042,122.7604 115.1042,143.0417 115.1042,160.2292 " fill="none" id="1-backto-0" style="stroke:#2A9FD6;stroke-width:3.125;"/><polygon fill="#2A9FD6" points="115.1042,99.9792,110.9375,109.3542,115.1042,105.1875,119.2708,109.3542,115.1042,99.9792" style="stroke:#2A9FD6;stroke-width:3.125;"/></g></g></svg>